{"title":"The Girl With The Dragon Tattoo 2011 BrRip 1080p x264 Dual-Audio","uid":8019418,"size":2945073728,"categoryP":"video","categoryS":"hd___movies","magnet":"?xt=urn:btih:e5ba55d2bb8174d6a38c27d9ffa5168c834ed120&amp;dn=The+Girl+With+The+Dragon+Tattoo+2011+BrRip+1080p+x264+Dual-Audio&amp;tr=udp%3A%2F%2Ftracker.openbittorrent.com%3A80&amp;tr=udp%3A%2F%2Fopen.demonii.com%3A1337&amp;tr=udp%3A%2F%2Ftracker.coppersurfer.tk%3A6969&amp;tr=udp%3A%2F%2Fexodus.desync.com%3A6969","seeders":0,"leechers":2,"uploader":"nimitmak","files":10,"time":1358170487,"description":"::General::\nComplete name: The Girl With The Dragon Tattoo 2011 BrRip 1080p x264 Dual-Audio [English 5.1-Hindi 5.1] NimitMak SilverRG\nFormat: Matroska\nFile size: 2.72 GiB\nDuration: 2h 38mn\nOverall Bitrate: 2465 Kbps\nLanguage: [Dual-Audio] English-Hindi\nSub Title: English\nEncoder: NimitMak\n\n::IMDB INFO::\nIMDB Link:http://www.imdb.com/title/tt1568346/\nIMDB Rating:7.9/10\nRelease Date:20 December 2011 (USA)\nGenre: Crime | Drama | Mystery \n\n::Video::\nFormat/Info: Advanced Video Codec\nBitrate: 1856 Kbps\nWidth: 1920 pixels\nHeight: 798 pixels\nDisplay aspect ratio: 2.40:1\nFrame rate: 23.976 fps\n\n::Audio #1::\nID : 2\nFormat: AC-3\nFormat/Info: Audio Coding 3\nDuration: 2h 38mn\nBit rate mode: Constant\nBit rate: 448 Kbps\nChannel(s) : 6 channels\nChannel positions: Front: L C R, Side: L R, LFE\nSampling rate: 48.0 KHz\nBit depth : 16 bits\nCompression mode: Lossy\nStream size: 507 MiB (18%)\nTitle: Hindi - NimitMak SilverRG\n\n::Audio #2::\nID : 3\nFormat: AC-3\nFormat/Info: Audio Coding 3\nDuration: 2h 38mn\nBit rate mode: Constant\nBit rate: 192 Kbps\nChannel(s): 6 channels\nChannel positions: Front: L C R, Side: L R, LFE\nSampling rate: 48.0 KHz\nBit depth: 16 bits\nCompression mode: Lossy\nStream size: 217 MiB (8%)\nTitle: English - NimitMak SilverRG\n\n::Text::\nID : 4\nFormat: UTF-8\nCodec ID: S_TEXT/UTF8\nCodec ID/Info: UTF-8 Plain Text\nTitle : English - NimitMak SilverRG\n\nScreens : \n &lt;a href=&quot;\nhttp://i.imgbox.com/abppRrkz&quot; rel=&quot;nofollow&quot; target=&quot;_NEW&quot;&gt;\nhttp://i.imgbox.com/abppRrkz&lt;/a&gt; &lt;a href=&quot;\nhttp://i.imgbox.com/abkhC6qi&quot; rel=&quot;nofollow&quot; target=&quot;_NEW&quot;&gt;\nhttp://i.imgbox.com/abkhC6qi&lt;/a&gt; &lt;a href=&quot;\nhttp://i.imgbox.com/abn8Ogof&quot; rel=&quot;nofollow&quot; target=&quot;_NEW&quot;&gt;\nhttp://i.imgbox.com/abn8Ogof&lt;/a&gt; &lt;a href=&quot;\nhttp://i.imgbox.com/ack4C1tm&quot; rel=&quot;nofollow&quot; target=&quot;_NEW&quot;&gt;\nhttp://i.imgbox.com/ack4C1tm&lt;/a&gt; &lt;a href=&quot;\nhttp://i.imgbox.com/accebHCv&quot; rel=&quot;nofollow&quot; target=&quot;_NEW&quot;&gt;\nhttp://i.imgbox.com/accebHCv&lt;/a&gt; &lt;a href=&quot;\nhttp://i.imgbox.com/abixcnjm&quot; rel=&quot;nofollow&quot; target=&quot;_NEW&quot;&gt;\nhttp://i.imgbox.com/abixcnjm&lt;/a&gt; &lt;a href=&quot;\nhttp://i.imgbox.com/achE8csc&quot; rel=&quot;nofollow&quot; target=&quot;_NEW&quot;&gt;\nhttp://i.imgbox.com/achE8csc&lt;/a&gt; &lt;a href=&quot;\nhttp://i.imgbox.com/abg3VEIR&quot; rel=&quot;nofollow&quot; target=&quot;_NEW&quot;&gt;\nhttp://i.imgbox.com/abg3VEIR&lt;/a&gt; &lt;a href=&quot;\nhttp://i.imgbox.com/acrv9Ol4&quot; rel=&quot;nofollow&quot; target=&quot;_NEW&quot;&gt;\nhttp://i.imgbox.com/acrv9Ol4&lt;/a&gt; &lt;a href=&quot;\nhttp://i.imgbox.com/abvWokwh&quot; rel=&quot;nofollow&quot; target=&quot;_NEW&quot;&gt;\nhttp://i.imgbox.com/abvWokwh&lt;/a&gt; &lt;a href=&quot;\nhttp://i.imgbox.com/abvEgyT2&quot; rel=&quot;nofollow&quot; target=&quot;_NEW&quot;&gt;\nhttp://i.imgbox.com/abvEgyT2&lt;/a&gt; &lt;a href=&quot;\nhttp://i.imgbox.com/ackeGYF7&quot; rel=&quot;nofollow&quot; target=&quot;_NEW&quot;&gt;\nhttp://i.imgbox.com/ackeGYF7&lt;/a&gt; &lt;a href=&quot;\nhttp://i.imgbox.com/abnaYRrH&quot; rel=&quot;nofollow&quot; target=&quot;_NEW&quot;&gt;\nhttp://i.imgbox.com/abnaYRrH&lt;/a&gt; &lt;a href=&quot;\nhttp://i.imgbox.com/achV8069&quot; rel=&quot;nofollow&quot; target=&quot;_NEW&quot;&gt;\nhttp://i.imgbox.com/achV8069&lt;/a&gt;","torrent":{"xt":"urn:btih:e5ba55d2bb8174d6a38c27d9ffa5168c834ed120","amp;dn":"The+Girl+With+The+Dragon+Tattoo+2011+BrRip+1080p+x264+Dual-Audio","amp;tr":["udp%3A%2F%2Ftracker.openbittorrent.com%3A80","udp%3A%2F%2Fopen.demonii.com%3A1337","udp%3A%2F%2Ftracker.coppersurfer.tk%3A6969","udp%3A%2F%2Fexodus.desync.com%3A6969"],"infoHash":"e5ba55d2bb8174d6a38c27d9ffa5168c834ed120","infoHashBuffer":{"type":"Buffer","data":[229,186,85,210,187,129,116,214,163,140,39,217,255,165,22,140,131,78,209,32]},"announce":[],"urlList":[]}}